<svg width="52" height="52" viewBox="0 0 52 52" fill="none" xmlns="http://www.w3.org/2000/svg">
<g filter="url(#filter0_dd_6_943)">
<rect x="6" y="6" width="40" height="40" rx="12" fill="white"/>
</g>
<mask id="path-2-inside-1_6_943" fill="white">
<path d="M35.3749 21.0847H28.9687V19.2203C28.9687 17.4446 27.637 16 26 16C24.363 16 23.0312 17.4446 23.0312 19.2203V21.0847H16.625C16.4325 21.0847 16.2508 21.1808 16.1324 21.3456C16.0139 21.5102 15.972 21.7247 16.0186 21.9273L19.1436 35.4866C19.2131 35.7883 19.4633 36 19.75 36H32.25C32.5368 36 32.7868 35.7883 32.8564 35.4866L35.9814 21.9273C36.0281 21.7247 35.9859 21.5102 35.8674 21.3456C35.7492 21.1808 35.5674 21.0847 35.3749 21.0847ZM24.2812 19.2203C24.2812 18.1924 25.0523 17.3559 26 17.3559C26.9475 17.3559 27.7187 18.1924 27.7187 19.2203V21.0847H24.2812V19.2203ZM31.762 34.6441H20.238L17.4255 22.4407H34.5745L31.762 34.6441ZM22.7125 30.9888C22.7612 31.3597 22.5237 31.7032 22.1822 31.7559C22.1522 31.7603 22.1223 31.7627 22.093 31.7627C21.787 31.7627 21.5195 31.5188 21.475 31.1807L20.6937 25.2485C20.645 24.8778 20.8825 24.5344 21.2241 24.4814C21.5664 24.4283 21.8823 24.6861 21.9312 25.0566L22.7125 30.9888ZM29.2875 30.9888L30.0687 25.0566C30.1176 24.6859 30.4329 24.4283 30.7759 24.4814C31.1175 24.5344 31.3548 24.8778 31.3062 25.2485L30.525 31.1807C30.4804 31.5186 30.2129 31.7627 29.907 31.7627C29.8776 31.7627 29.8479 31.7603 29.8178 31.7559C29.4762 31.7027 29.2389 31.3595 29.2875 30.9888ZM26.625 25.1525V31.0847C26.625 31.4592 26.3451 31.7627 26 31.7627C25.6548 31.7627 25.375 31.4592 25.375 31.0847V25.1525C25.375 24.7781 25.6548 24.4746 26 24.4746C26.3451 24.4746 26.625 24.7781 26.625 25.1525Z"/>
</mask>
<path d="M35.3749 21.0847H28.9687V19.2203C28.9687 17.4446 27.637 16 26 16C24.363 16 23.0312 17.4446 23.0312 19.2203V21.0847H16.625C16.4325 21.0847 16.2508 21.1808 16.1324 21.3456C16.0139 21.5102 15.972 21.7247 16.0186 21.9273L19.1436 35.4866C19.2131 35.7883 19.4633 36 19.75 36H32.25C32.5368 36 32.7868 35.7883 32.8564 35.4866L35.9814 21.9273C36.0281 21.7247 35.9859 21.5102 35.8674 21.3456C35.7492 21.1808 35.5674 21.0847 35.3749 21.0847ZM24.2812 19.2203C24.2812 18.1924 25.0523 17.3559 26 17.3559C26.9475 17.3559 27.7187 18.1924 27.7187 19.2203V21.0847H24.2812V19.2203ZM31.762 34.6441H20.238L17.4255 22.4407H34.5745L31.762 34.6441ZM22.7125 30.9888C22.7612 31.3597 22.5237 31.7032 22.1822 31.7559C22.1522 31.7603 22.1223 31.7627 22.093 31.7627C21.787 31.7627 21.5195 31.5188 21.475 31.1807L20.6937 25.2485C20.645 24.8778 20.8825 24.5344 21.2241 24.4814C21.5664 24.4283 21.8823 24.6861 21.9312 25.0566L22.7125 30.9888ZM29.2875 30.9888L30.0687 25.0566C30.1176 24.6859 30.4329 24.4283 30.7759 24.4814C31.1175 24.5344 31.3548 24.8778 31.3062 25.2485L30.525 31.1807C30.4804 31.5186 30.2129 31.7627 29.907 31.7627C29.8776 31.7627 29.8479 31.7603 29.8178 31.7559C29.4762 31.7027 29.2389 31.3595 29.2875 30.9888ZM26.625 25.1525V31.0847C26.625 31.4592 26.3451 31.7627 26 31.7627C25.6548 31.7627 25.375 31.4592 25.375 31.0847V25.1525C25.375 24.7781 25.6548 24.4746 26 24.4746C26.3451 24.4746 26.625 24.7781 26.625 25.1525Z" fill="#D9D9D9"/>
<path d="M28.9687 21.0847H17.9687V32.0847H28.9687V21.0847ZM23.0312 21.0847V32.0847H34.0312V21.0847H23.0312ZM16.1324 21.3456L25.0607 27.7709L25.0639 27.7665L16.1324 21.3456ZM16.0186 21.9273L5.29824 24.3918L5.2996 24.3977L16.0186 21.9273ZM19.1436 35.4866L29.8626 33.0162L19.1436 35.4866ZM32.8564 35.4866L43.5754 37.957L32.8564 35.4866ZM35.9813 21.9273L25.2628 19.4549L25.2623 19.4569L35.9813 21.9273ZM35.8674 21.3456L26.9319 27.7609L26.9391 27.7709L35.8674 21.3456ZM27.7187 21.0847V32.0847H38.7187V21.0847H27.7187ZM24.2812 21.0847H13.2812V32.0847H24.2812V21.0847ZM31.762 34.6441V45.6441H40.5152L42.481 37.1145L31.762 34.6441ZM20.238 34.6441L9.51896 37.1145L11.4848 45.6441H20.238V34.6441ZM17.4255 22.4407V11.4407H3.60198L6.70647 24.9111L17.4255 22.4407ZM34.5745 22.4407L45.2935 24.9111L48.398 11.4407H34.5745V22.4407ZM22.7125 30.9888L33.6187 29.5551L33.6183 29.5526L22.7125 30.9888ZM22.1822 31.7559L23.7809 42.6391L23.8204 42.6333L23.8599 42.6272L22.1822 31.7559ZM21.475 31.1807L32.3808 29.7444V29.7444L21.475 31.1807ZM20.6937 25.2485L9.78766 26.6828L9.78792 26.6847L20.6937 25.2485ZM21.2241 24.4814L19.5396 13.6111L19.5358 13.6117L21.2241 24.4814ZM21.9312 25.0566L32.8371 23.6204L32.8367 23.6171L21.9312 25.0566ZM29.2875 30.9888L18.3816 29.5526L18.3808 29.559L29.2875 30.9888ZM30.0687 25.0566L19.1632 23.6178L19.1629 23.6204L30.0687 25.0566ZM30.7759 24.4814L32.4642 13.6117L32.4574 13.6106L30.7759 24.4814ZM31.3062 25.2485L42.212 26.6847L42.2129 26.6783L31.3062 25.2485ZM30.525 31.1807L41.4307 32.6176L41.4308 32.6169L30.525 31.1807ZM29.8178 31.7559L28.1243 42.6248L28.1757 42.6328L28.2272 42.6403L29.8178 31.7559ZM35.3749 10.0847H28.9687V32.0847H35.3749V10.0847ZM39.9687 21.0847V19.2203H17.9687V21.0847H39.9687ZM39.9687 19.2203C39.9687 12.2291 34.5375 5 26 5V27C20.7365 27 17.9687 22.6601 17.9687 19.2203H39.9687ZM26 5C17.4624 5 12.0312 12.2291 12.0312 19.2203H34.0312C34.0312 22.6601 31.2635 27 26 27V5ZM12.0312 19.2203V21.0847H34.0312V19.2203H12.0312ZM23.0312 10.0847H16.625V32.0847H23.0312V10.0847ZM16.625 10.0847C12.6792 10.0847 9.25868 12.0622 7.20086 14.9247L25.0639 27.7665C23.2429 30.2994 20.1858 32.0847 16.625 32.0847V10.0847ZM7.20399 14.9203C5.18254 17.7293 4.56435 21.1994 5.29824 24.3918L26.739 19.4628C27.3797 22.2501 26.8453 25.2911 25.0607 27.7709L7.20399 14.9203ZM5.2996 24.3977L8.42459 37.957L29.8626 33.0162L26.7376 19.4569L5.2996 24.3977ZM8.42459 37.957C9.51468 42.6869 13.7824 47 19.75 47V25C25.1441 25 28.9116 28.8897 29.8626 33.0162L8.42459 37.957ZM19.75 47H32.25V25H19.75V47ZM32.25 47C38.2193 47 42.4857 42.6852 43.5754 37.957L22.1374 33.0162C23.088 28.8914 26.8543 25 32.25 25V47ZM43.5754 37.957L46.7004 24.3977L25.2623 19.4569L22.1374 33.0162L43.5754 37.957ZM46.6999 24.3996C47.4402 21.1903 46.8103 17.7195 44.7958 14.9203L26.9391 27.7709C25.1615 25.3008 24.616 22.2592 25.2628 19.4549L46.6999 24.3996ZM44.803 14.9303C42.7435 12.0617 39.3197 10.0847 35.3749 10.0847V32.0847C31.8152 32.0847 28.7549 30.3 26.9319 27.7609L44.803 14.9303ZM35.2812 19.2203C35.2812 23.4079 31.9528 28.3559 26 28.3559V6.35593C18.1518 6.35593 13.2812 12.9769 13.2812 19.2203H35.2812ZM26 28.3559C20.0476 28.3559 16.7187 23.4086 16.7187 19.2203H38.7187C38.7187 12.9762 33.8474 6.35593 26 6.35593V28.3559ZM16.7187 19.2203V21.0847H38.7187V19.2203H16.7187ZM27.7187 10.0847H24.2812V32.0847H27.7187V10.0847ZM35.2812 21.0847V19.2203H13.2812V21.0847H35.2812ZM31.762 23.6441H20.238V45.6441H31.762V23.6441ZM30.957 32.1737L28.1445 19.9703L6.70647 24.9111L9.51896 37.1145L30.957 32.1737ZM17.4255 33.4407H34.5745V11.4407H17.4255V33.4407ZM23.8555 19.9703L21.043 32.1737L42.481 37.1145L45.2935 24.9111L23.8555 19.9703ZM11.8063 32.4225C11.1811 27.6661 14.1695 21.8623 20.5045 20.8846L23.8599 42.6272C30.878 41.5442 34.3414 35.0532 33.6187 29.5551L11.8063 32.4225ZM20.5835 20.8727C21.0258 20.8077 21.5326 20.7627 22.093 20.7627V42.7627C22.7121 42.7627 23.2785 42.7129 23.7809 42.6391L20.5835 20.8727ZM22.093 20.7627C27.8953 20.7627 31.7842 25.2139 32.3808 29.7444L10.5692 32.6169C11.2549 37.8237 15.6788 42.7627 22.093 42.7627V20.7627ZM32.3808 29.7444L31.5996 23.8122L9.78792 26.6847L10.5692 32.6169L32.3808 29.7444ZM31.5998 23.8142C32.2266 28.5795 29.2307 34.3697 22.9123 35.351L19.5358 13.6117C12.5343 14.6991 9.06345 21.1761 9.78766 26.6828L31.5998 23.8142ZM22.9086 35.3516C16.33 36.3711 11.6714 31.3869 11.0258 26.4961L32.8367 23.6171C32.0933 17.9853 26.8028 12.4856 19.5396 13.6111L22.9086 35.3516ZM11.0254 26.4929L11.8067 32.4251L33.6183 29.5526L32.8371 23.6204L11.0254 26.4929ZM40.1933 32.4251L40.9745 26.4929L19.1629 23.6204L18.3816 29.5526L40.1933 32.4251ZM40.9742 26.4954C40.3291 31.3846 35.6723 36.3696 29.0944 35.3521L32.4574 13.6106C25.1936 12.4871 19.9061 17.9873 19.1632 23.6178L40.9742 26.4954ZM29.0876 35.351C22.7653 34.3691 19.7758 28.5763 20.3995 23.8187L42.2129 26.6783C42.9338 21.1793 39.4696 14.6998 32.4642 13.6117L29.0876 35.351ZM20.4004 23.8122L19.6191 29.7444L41.4308 32.6169L42.212 26.6847L20.4004 23.8122ZM19.6192 29.7437C20.2158 25.216 24.1024 20.7627 29.907 20.7627V42.7627C36.3234 42.7627 40.7451 37.8213 41.4307 32.6176L19.6192 29.7437ZM29.907 20.7627C30.4712 20.7627 30.9761 20.8084 31.4083 20.8715L28.2272 42.6403C28.7197 42.7123 29.2841 42.7627 29.907 42.7627V20.7627ZM31.5113 20.8871C37.8248 21.8708 40.8185 27.6562 40.1941 32.4186L18.3808 29.559C17.6593 35.0627 21.1276 41.5346 28.1243 42.6248L31.5113 20.8871ZM15.625 25.1525V31.0847H37.625V25.1525H15.625ZM15.625 31.0847C15.625 26.2436 19.4446 20.7627 26 20.7627V42.7627C33.2457 42.7627 37.625 36.6747 37.625 31.0847H15.625ZM26 20.7627C32.5553 20.7627 36.375 26.2436 36.375 31.0847H14.375C14.375 36.6747 18.7543 42.7627 26 42.7627V20.7627ZM36.375 31.0847V25.1525H14.375V31.0847H36.375ZM36.375 25.1525C36.375 29.9937 32.5553 35.4746 26 35.4746V13.4746C18.7543 13.4746 14.375 19.5626 14.375 25.1525H36.375ZM26 35.4746C19.4446 35.4746 15.625 29.9936 15.625 25.1525H37.625C37.625 19.5626 33.2457 13.4746 26 13.4746V35.4746Z" fill="#8BC53F" mask="url(#path-2-inside-1_6_943)"/>
<defs>
<filter id="filter0_dd_6_943" x="0" y="0" width="52" height="52" filterUnits="userSpaceOnUse" color-interpolation-filters="sRGB">
<feFlood flood-opacity="0" result="BackgroundImageFix"/>
<feColorMatrix in="SourceAlpha" type="matrix" values="0 0 0 0 0 0 0 0 0 0 0 0 0 0 0 0 0 0 127 0" result="hardAlpha"/>
<feOffset dy="2"/>
<feGaussianBlur stdDeviation="2"/>
<feColorMatrix type="matrix" values="0 0 0 0 0 0 0 0 0 0 0 0 0 0 0 0 0 0 0.08 0"/>
<feBlend mode="normal" in2="BackgroundImageFix" result="effect1_dropShadow_6_943"/>
<feColorMatrix in="SourceAlpha" type="matrix" values="0 0 0 0 0 0 0 0 0 0 0 0 0 0 0 0 0 0 127 0" result="hardAlpha"/>
<feOffset/>
<feGaussianBlur stdDeviation="3"/>
<feColorMatrix type="matrix" values="0 0 0 0 0 0 0 0 0 0 0 0 0 0 0 0 0 0 0.02 0"/>
<feBlend mode="normal" in2="effect1_dropShadow_6_943" result="effect2_dropShadow_6_943"/>
<feBlend mode="normal" in="SourceGraphic" in2="effect2_dropShadow_6_943" result="shape"/>
</filter>
</defs>
</svg>
